<?xml version="1.0" encoding="iso-8859-1"?>
<!-- Uploaded to: SVG Repo, www.svgrepo.com, Generator: SVG Repo Mixer Tools -->
<svg fill="#14532d" height="800px" width="800px" version="1.1" id="Layer_1" xmlns="http://www.w3.org/2000/svg" xmlns:xlink="http://www.w3.org/1999/xlink" 
	 viewBox="0 0 512 512" xml:space="preserve">
<g>
	<g>
		<path d="M249.035,84.117c-4.183,0-7.573,3.39-7.573,7.573v73.139c0,4.183,3.39,7.573,7.573,7.573s7.573-3.39,7.573-7.573V91.69
			C256.608,87.507,253.218,84.117,249.035,84.117z"/>
	</g>
</g>
<g>
	<g>
		<path d="M413.168,84.117c-4.183,0-7.573,3.39-7.573,7.573v62.366c0,4.182,3.39,7.573,7.573,7.573c4.183,0,7.573-3.39,7.573-7.573
			V91.69C420.741,87.507,417.351,84.117,413.168,84.117z"/>
	</g>
</g>
<g>
	<g>
		<path d="M413.168,184.972c-4.183,0-7.573,3.39-7.573,7.573v44.449c0,4.183,3.39,7.573,7.573,7.573c4.183,0,7.573-3.39,7.573-7.573
			v-44.449C420.741,188.362,417.351,184.972,413.168,184.972z"/>
	</g>
</g>
<g>
	<g>
		<path d="M76.193,197.732c-4.183,0-7.573,3.39-7.573,7.573v44.449c0,4.183,3.39,7.573,7.573,7.573c4.183,0,7.573-3.39,7.573-7.573
			v-44.449C83.766,201.121,80.376,197.732,76.193,197.732z"/>
	</g>
</g>
<g>
	<g>
		<path d="M76.193,276.379c-4.183,0-7.573,3.39-7.573,7.573v20.924c0,4.183,3.39,7.573,7.573,7.573c4.183,0,7.573-3.39,7.573-7.573
			v-20.924C83.766,279.77,80.376,276.379,76.193,276.379z"/>
	</g>
</g>
<g>
	<g>
		<path d="M249.035,186.993c-4.183,0-7.573,3.39-7.573,7.573v209.288c0,4.183,3.39,7.573,7.573,7.573s7.573-3.39,7.573-7.573
			V194.566C256.608,190.383,253.218,186.993,249.035,186.993z"/>
	</g>
</g>
<g>
	<g>
		<path d="M288.29,107.992c-4.183,0-7.573,3.39-7.573,7.573v139.38c0,4.183,3.39,7.573,7.573,7.573c4.183,0,7.573-3.39,7.573-7.573
			V115.565C295.863,111.383,292.474,107.992,288.29,107.992z"/>
	</g>
</g>
<g>
	<g>
		<path d="M288.29,288.302c-4.183,0-7.573,3.39-7.573,7.573v139.379c0,4.183,3.39,7.573,7.573,7.573c4.183,0,7.573-3.39,7.573-7.573
			V295.876C295.863,291.692,292.474,288.302,288.29,288.302z"/>
	</g>
</g>
<g>
	<g>
		<path d="M209.034,107.992c-4.183,0-7.573,3.39-7.573,7.573v144.827c0,4.183,3.39,7.573,7.573,7.573
			c4.183,0,7.573-3.39,7.573-7.573V115.565C216.607,111.383,213.216,107.992,209.034,107.992z"/>
	</g>
</g>
<g>
	<g>
		<path d="M209.034,288.838c-4.183,0-7.573,3.39-7.573,7.573v127.702c0,4.183,3.39,7.573,7.573,7.573
			c4.183,0,7.573-3.39,7.573-7.573V296.411C216.607,292.228,213.216,288.838,209.034,288.838z"/>
	</g>
</g>
<g>
	<g>
		<path d="M470.048,423.978c-1.046,0-2.092,0.039-3.135,0.118c-5.298-21.971-25.19-38.185-48.476-38.185
			c-23.189,0-43.114,16.198-48.452,38.108c-0.615-0.027-1.232-0.041-1.847-0.041c-10.995,0-21.01,4.258-28.5,11.204V309.641h70.643
			c22.264,0,40.377-18.113,40.377-40.377V95.251c0-21.219-17.264-38.482-38.482-38.482s-38.482,17.264-38.482,38.482v137.425
			h-34.056v-96.07c0-34.126-19.18-63.852-47.325-78.977V18.888c0-3.063-1.845-5.825-4.675-6.997
			c-2.83-1.173-6.087-0.525-8.254,1.641l-8.899,8.899L254.39,6.335c-2.958-2.956-7.753-2.958-10.71,0l-16.098,16.097l-8.899-8.899
			c-2.167-2.166-5.423-2.815-8.254-1.641c-2.83,1.171-4.675,3.934-4.675,6.997v39.858c-27.038,15.441-45.305,44.556-45.305,77.86
			v136.399h-45.365v-66.741c0-21.219-17.264-38.482-38.482-38.482s-38.481,17.264-38.481,38.482v103.328
			c0,22.264,18.113,40.377,40.376,40.377h81.951v89.996c-7.048-6.654-16.54-10.747-26.975-10.747c-0.819,0-1.636,0.025-2.452,0.077
			c-5.125-20.311-23.611-35.244-45.225-35.244c-21.527,0-40.048,14.926-45.208,35.188c-0.42-0.014-0.839-0.021-1.259-0.021
			C17.645,429.22,0,446.863,0,468.551s17.645,39.331,39.331,39.331h94.143c10.435,0,19.927-4.093,26.975-10.747v3.174
			c0,4.183,3.39,7.573,7.573,7.573h164.042c4.183,0,7.573-3.39,7.573-7.573v-3.63c7.488,6.946,17.504,11.203,28.5,11.203h101.911
			c23.132,0,41.952-18.82,41.952-41.952C512,442.798,493.18,423.978,470.048,423.978z M133.475,492.736H39.331
			c-13.336,0-24.185-10.849-24.185-24.185s10.849-24.185,24.185-24.185c1.921,0,3.849,0.231,5.731,0.69
			c2.159,0.525,4.439,0.073,6.239-1.232c1.797-1.307,2.931-3.337,3.1-5.553c1.241-16.303,15.031-29.072,31.397-29.072
			c16.497,0,30.296,12.881,31.415,29.326c0.155,2.28,1.33,4.367,3.2,5.682c1.869,1.315,4.23,1.71,6.429,1.089
			c2.165-0.616,4.397-0.929,6.632-0.929c13.336,0,24.186,10.849,24.186,24.185S146.811,492.736,133.475,492.736z M277.167,37.171
			v14.041c-3.654-1.163-7.409-2.102-11.249-2.792L277.167,37.171z M249.035,22.401l10.741,10.742l-10.741,10.741l-10.742-10.742
			L249.035,22.401z M220.902,37.171l11.574,11.574c-3.957,0.79-7.822,1.841-11.574,3.135V37.171z M332.065,294.493
			c-4.183,0-7.573,3.39-7.573,7.573v190.669h-0.001h-28.629v-29.006c0-4.183-3.39-7.573-7.573-7.573
			c-4.183,0-7.573,3.39-7.573,7.573v29.006h-24.109v-54.879c0-4.183-3.39-7.573-7.573-7.573c-4.183,0-7.573,3.39-7.573,7.573v54.879
			h-24.854v-29.006c0-4.183-3.39-7.573-7.573-7.573c-4.183,0-7.573,3.39-7.573,7.573v29.006h-25.864V342.396
			c0-4.183-3.39-7.573-7.573-7.573H78.498c-13.911,0-25.23-11.318-25.23-25.231V206.264c0-12.867,10.468-23.336,23.335-23.336
			c12.867,0,23.336,10.468,23.336,23.336v74.314c0,4.183,3.39,7.573,7.573,7.573h60.511c4.183,0,7.573-3.39,7.573-7.573V136.607
			c0-41.051,33.397-74.449,74.449-74.449c41.05,0,74.448,33.397,74.448,74.449V240.25c0,4.183,3.39,7.573,7.573,7.573h49.203
			c4.183,0,7.573-3.39,7.573-7.573V95.251c0-12.867,10.468-23.336,23.336-23.336s23.336,10.468,23.336,23.336v174.011
			c0,13.913-11.318,25.231-25.231,25.231H332.065z M470.048,492.736H368.137c-14.781,0-26.805-12.024-26.805-26.805
			c0-14.781,12.024-26.806,26.805-26.806c2.127,0,4.264,0.258,6.351,0.764c2.157,0.524,4.44,0.074,6.239-1.232
			c1.797-1.307,2.931-3.337,3.1-5.553c1.367-17.971,16.57-32.047,34.609-32.047c18.186,0,33.397,14.2,34.631,32.328
			c0.154,2.28,1.33,4.367,3.2,5.682c1.869,1.314,4.232,1.711,6.428,1.089c2.402-0.685,4.875-1.031,7.352-1.031
			c14.781,0,26.805,12.025,26.805,26.806S484.829,492.736,470.048,492.736z"/>
	</g>
</g>
</svg>